<svg width="100" height="100" viewBox="0 0 100 100" fill="none" xmlns="http://www.w3.org/2000/svg">
<path d="M97.7327 46.548C97.6992 46.0459 97.5821 45.5688 97.3812 45.1169C97.1971 44.665 96.9377 44.2801 96.6029 43.962C96.2849 43.6273 95.8999 43.3679 95.448 43.1837C95.0129 42.9829 94.5275 42.8825 93.9919 42.8825C93.4395 42.8825 92.9374 42.9829 92.4855 43.1837C92.0503 43.3679 91.6737 43.6273 91.3557 43.962C91.0377 44.2968 90.7866 44.6901 90.6025 45.142C90.4184 45.5772 90.3096 46.0459 90.2762 46.548H97.7327ZM99.7914 50.1633C99.5069 51.6194 98.8792 52.7157 97.9084 53.4522C96.9377 54.1886 95.7158 54.5568 94.2429 54.5568C93.2052 54.5568 92.3014 54.3895 91.5315 54.0547C90.7783 53.72 90.1423 53.2513 89.6234 52.6488C89.1045 52.0462 88.7112 51.3265 88.4434 50.4896C88.1923 49.6528 88.0501 48.7406 88.0166 47.7531C88.0166 46.7656 88.1672 45.8617 88.4685 45.0416C88.7698 44.2215 89.1882 43.5101 89.7238 42.9076C90.2762 42.305 90.9206 41.8364 91.657 41.5016C92.4102 41.1669 93.2303 40.9995 94.1174 40.9995C95.2723 40.9995 96.2263 41.2422 96.9795 41.7276C97.7494 42.1962 98.3603 42.7988 98.8123 43.5352C99.2809 44.2717 99.5989 45.0751 99.7663 45.9454C99.9504 46.8158 100.026 47.6443 99.9922 48.4309H90.2762C90.2594 49 90.3264 49.544 90.477 50.0628C90.6276 50.565 90.8703 51.0169 91.2051 51.4186C91.5398 51.8035 91.9666 52.1132 92.4855 52.3475C93.0044 52.5818 93.6153 52.699 94.3183 52.699C95.2221 52.699 95.9585 52.4898 96.5276 52.0713C97.1134 51.6529 97.4984 51.0169 97.6825 50.1633H99.7914Z" fill="#880000"/>
<path d="M79.8799 50.1884C79.8966 50.657 80.0054 51.0587 80.2063 51.3935C80.4071 51.7115 80.6665 51.9709 80.9845 52.1718C81.3193 52.3559 81.6875 52.4898 82.0892 52.5735C82.5077 52.6571 82.9345 52.699 83.3696 52.699C83.7044 52.699 84.0559 52.6739 84.4241 52.6237C84.7923 52.5735 85.1271 52.4814 85.4283 52.3475C85.7463 52.2136 86.0058 52.0211 86.2066 51.7701C86.4075 51.5023 86.5079 51.1675 86.5079 50.7658C86.5079 50.2135 86.2987 49.795 85.8802 49.5105C85.4618 49.226 84.9346 49 84.2986 48.8326C83.6793 48.6485 83.0014 48.4895 82.265 48.3556C81.5285 48.205 80.8423 48.0041 80.2063 47.7531C79.587 47.4853 79.0681 47.117 78.6497 46.6484C78.2312 46.1797 78.022 45.527 78.022 44.6901C78.022 44.0374 78.1643 43.4767 78.4488 43.008C78.7501 42.5394 79.1267 42.1628 79.5786 41.8782C80.0472 41.577 80.5661 41.3594 81.1352 41.2255C81.721 41.0748 82.2984 40.9995 82.8675 40.9995C83.604 40.9995 84.2818 41.0665 84.9011 41.2004C85.5204 41.3175 86.0644 41.5351 86.533 41.8531C87.0184 42.1544 87.4034 42.5728 87.6879 43.1084C87.9724 43.6273 88.1398 44.2801 88.19 45.0667H86.056C86.0225 44.6483 85.9137 44.3052 85.7296 44.0374C85.5455 43.7528 85.3112 43.5269 85.0266 43.3595C84.7421 43.1921 84.4241 43.075 84.0726 43.008C83.7379 42.9243 83.3947 42.8825 83.0432 42.8825C82.7252 42.8825 82.3989 42.9076 82.0641 42.9578C81.7461 43.008 81.4532 43.1001 81.1854 43.234C80.9176 43.3511 80.7 43.5185 80.5326 43.7361C80.3653 43.9369 80.2816 44.2047 80.2816 44.5395C80.2816 44.9077 80.4071 45.2173 80.6582 45.4684C80.926 45.7027 81.2607 45.9036 81.6624 46.071C82.0641 46.2216 82.516 46.3555 83.0181 46.4727C83.5203 46.5731 84.0224 46.6819 84.5245 46.799C85.0601 46.9162 85.579 47.0585 86.0811 47.2258C86.6 47.3932 87.0519 47.6192 87.4368 47.9037C87.8385 48.1715 88.1565 48.5146 88.3909 48.9331C88.6419 49.3515 88.7675 49.8704 88.7675 50.4896C88.7675 51.2763 88.6001 51.9291 88.2653 52.4479C87.9473 52.9668 87.5205 53.3852 86.9849 53.7032C86.4661 54.0212 85.8719 54.2388 85.2024 54.356C84.5496 54.4899 83.8969 54.5568 83.2441 54.5568C82.5244 54.5568 81.8381 54.4815 81.1854 54.3309C80.5326 54.1802 79.9552 53.9376 79.4531 53.6028C78.9509 53.2513 78.5492 52.7994 78.248 52.2471C77.9467 51.678 77.7793 50.9918 77.7458 50.1884H79.8799Z" fill="#880000"/>
<path d="M68.1219 47.8033C68.1219 48.5899 68.2223 49.2929 68.4231 49.9122C68.6407 50.5147 68.9336 51.0252 69.3018 51.4437C69.6701 51.8454 70.0969 52.155 70.5823 52.3726C71.0844 52.5902 71.6116 52.699 72.1639 52.699C72.7163 52.699 73.2351 52.5902 73.7205 52.3726C74.2227 52.155 74.6578 51.8454 75.026 51.4437C75.3943 51.0252 75.6788 50.5147 75.8797 49.9122C76.0972 49.2929 76.206 48.5899 76.206 47.8033C76.206 47.0166 76.0972 46.322 75.8797 45.7195C75.6788 45.1002 75.3943 44.5813 75.026 44.1629C74.6578 43.7445 74.2227 43.4264 73.7205 43.2089C73.2351 42.9913 72.7163 42.8825 72.1639 42.8825C71.6116 42.8825 71.0844 42.9913 70.5823 43.2089C70.0969 43.4264 69.6701 43.7445 69.3018 44.1629C68.9336 44.5813 68.6407 45.1002 68.4231 45.7195C68.2223 46.322 68.1219 47.0166 68.1219 47.8033ZM65.8623 47.8033C65.8623 46.8492 65.9962 45.9622 66.264 45.142C66.5318 44.3052 66.9335 43.5854 67.4691 42.9829C68.0047 42.3636 68.6658 41.8782 69.4525 41.5267C70.2391 41.1753 71.143 40.9995 72.1639 40.9995C73.2017 40.9995 74.1055 41.1753 74.8754 41.5267C75.6621 41.8782 76.3232 42.3636 76.8588 42.9829C77.3944 43.5854 77.7961 44.3052 78.0639 45.142C78.3317 45.9622 78.4656 46.8492 78.4656 47.8033C78.4656 48.7573 78.3317 49.6444 78.0639 50.4645C77.7961 51.2847 77.3944 52.0044 76.8588 52.6237C76.3232 53.2262 75.6621 53.7032 74.8754 54.0547C74.1055 54.3895 73.2017 54.5568 72.1639 54.5568C71.143 54.5568 70.2391 54.3895 69.4525 54.0547C68.6658 53.7032 68.0047 53.2262 67.4691 52.6237C66.9335 52.0044 66.5318 51.2847 66.264 50.4645C65.9962 49.6444 65.8623 48.7573 65.8623 47.8033Z" fill="#880000"/>
<path d="M56.1133 47.8033C56.1133 48.5899 56.2137 49.2929 56.4146 49.9122C56.6322 50.5147 56.9251 51.0252 57.2933 51.4437C57.6615 51.8454 58.0883 52.155 58.5737 52.3726C59.0758 52.5902 59.6031 52.699 60.1554 52.699C60.7077 52.699 61.2266 52.5902 61.712 52.3726C62.2141 52.155 62.6493 51.8454 63.0175 51.4437C63.3857 51.0252 63.6703 50.5147 63.8711 49.9122C64.0887 49.2929 64.1975 48.5899 64.1975 47.8033C64.1975 47.0166 64.0887 46.322 63.8711 45.7195C63.6703 45.1002 63.3857 44.5813 63.0175 44.1629C62.6493 43.7445 62.2141 43.4264 61.712 43.2089C61.2266 42.9913 60.7077 42.8825 60.1554 42.8825C59.6031 42.8825 59.0758 42.9913 58.5737 43.2089C58.0883 43.4264 57.6615 43.7445 57.2933 44.1629C56.9251 44.5813 56.6322 45.1002 56.4146 45.7195C56.2137 46.322 56.1133 47.0166 56.1133 47.8033ZM53.8538 47.8033C53.8538 46.8492 53.9877 45.9622 54.2555 45.142C54.5233 44.3052 54.925 43.5854 55.4606 42.9829C55.9962 42.3636 56.6573 41.8782 57.4439 41.5267C58.2306 41.1753 59.1344 40.9995 60.1554 40.9995C61.1931 40.9995 62.097 41.1753 62.8669 41.5267C63.6535 41.8782 64.3147 42.3636 64.8503 42.9829C65.3859 43.5854 65.7876 44.3052 66.0554 45.142C66.3232 45.9622 66.4571 46.8492 66.4571 47.8033C66.4571 48.7573 66.3232 49.6444 66.0554 50.4645C65.7876 51.2847 65.3859 52.0044 64.8503 52.6237C64.3147 53.2262 63.6535 53.7032 62.8669 54.0547C62.097 54.3895 61.1931 54.5568 60.1554 54.5568C59.1344 54.5568 58.2306 54.3895 57.4439 54.0547C56.6573 53.7032 55.9962 53.2262 55.4606 52.6237C54.925 52.0044 54.5233 51.2847 54.2555 50.4645C53.9877 49.6444 53.8538 48.7573 53.8538 47.8033Z" fill="#880000"/>
<path d="M53.745 53.176C53.745 55.3017 53.2597 56.8917 52.2889 57.9462C51.3181 59.0006 49.795 59.5279 47.7196 59.5279C47.117 59.5279 46.4977 59.4609 45.8617 59.327C45.2424 59.1931 44.6734 58.9755 44.1545 58.6742C43.6524 58.373 43.2339 57.9796 42.8992 57.4943C42.5644 57.0089 42.3803 56.4147 42.3469 55.7117H44.4809C44.4976 56.0967 44.6148 56.4231 44.8324 56.6909C45.0667 56.9587 45.3429 57.1762 45.6609 57.3436C45.9956 57.511 46.3555 57.6282 46.7404 57.6951C47.1254 57.7788 47.4936 57.8206 47.8451 57.8206C48.5481 57.8206 49.1423 57.6951 49.6276 57.444C50.113 57.2097 50.5147 56.875 50.8327 56.4398C51.1507 56.0214 51.3767 55.5109 51.5106 54.9083C51.6612 54.3058 51.7366 53.6446 51.7366 52.9249V52.0713H51.6863C51.3181 52.8747 50.7574 53.4689 50.0042 53.8539C49.2678 54.2221 48.4811 54.4062 47.6443 54.4062C46.6735 54.4062 45.8282 54.2305 45.1085 53.879C44.3888 53.5275 43.7863 53.0588 43.3009 52.473C42.8155 51.8705 42.4473 51.1759 42.1962 50.3892C41.9619 49.5858 41.8447 48.7406 41.8447 47.8535C41.8447 47.0836 41.9452 46.2969 42.146 45.4935C42.3469 44.6734 42.6816 43.9369 43.1502 43.2842C43.6189 42.6147 44.2382 42.0707 45.0081 41.6523C45.778 41.2171 46.7237 40.9995 47.8451 40.9995C48.6652 40.9995 49.4184 41.1836 50.1047 41.5518C50.7909 41.9033 51.3265 42.4389 51.7115 43.1586H51.7366V41.3008H53.745V53.176ZM47.7698 52.5483C48.4728 52.5483 49.0669 52.4061 49.5523 52.1215C50.0544 51.8203 50.4561 51.4353 50.7574 50.9667C51.0587 50.4813 51.2763 49.9373 51.4102 49.3348C51.5608 48.7322 51.6361 48.1297 51.6361 47.5271C51.6361 46.958 51.5692 46.3973 51.4353 45.845C51.3014 45.2927 51.0838 44.7989 50.7825 44.3637C50.498 43.9118 50.1214 43.552 49.6527 43.2842C49.1841 43.0164 48.615 42.8825 47.9455 42.8825C47.2593 42.8825 46.6735 43.0164 46.1881 43.2842C45.7027 43.5352 45.301 43.8784 44.983 44.3135C44.6817 44.7487 44.4558 45.2508 44.3051 45.8199C44.1712 46.389 44.1043 46.9831 44.1043 47.6024C44.1043 48.1882 44.1629 48.7741 44.28 49.3599C44.3972 49.9457 44.598 50.4813 44.8826 50.9667C45.1671 51.4353 45.5437 51.8203 46.0124 52.1215C46.481 52.4061 47.0668 52.5483 47.7698 52.5483Z" fill="#880000"/>
<path d="M31.0046 41.3008H33.0131V43.3595H33.0633C33.9504 41.7862 35.3564 40.9995 37.2812 40.9995C38.1348 40.9995 38.8461 41.1167 39.4152 41.351C39.9843 41.5853 40.4446 41.9117 40.796 42.3301C41.1475 42.7486 41.3902 43.2507 41.5241 43.8365C41.6748 44.4056 41.7501 45.0416 41.7501 45.7446V54.2807H39.6161V45.4935C39.6161 44.6901 39.3817 44.0541 38.9131 43.5854C38.4444 43.1168 37.8 42.8825 36.9799 42.8825C36.3271 42.8825 35.7581 42.9829 35.2727 43.1837C34.804 43.3846 34.4107 43.6691 34.0927 44.0374C33.7747 44.4056 33.532 44.8408 33.3646 45.3429C33.214 45.8283 33.1387 46.3639 33.1387 46.9497V54.2807H31.0046V41.3008Z" fill="#880000"/>
<path d="M20.5528 47.8033C20.5528 48.5899 20.6532 49.2929 20.854 49.9122C21.0716 50.5147 21.3645 51.0252 21.7328 51.4437C22.101 51.8454 22.5278 52.155 23.0132 52.3726C23.5153 52.5902 24.0425 52.699 24.5949 52.699C25.1472 52.699 25.6661 52.5902 26.1514 52.3726C26.6536 52.155 27.0887 51.8454 27.457 51.4437C27.8252 51.0252 28.1097 50.5147 28.3106 49.9122C28.5282 49.2929 28.637 48.5899 28.637 47.8033C28.637 47.0166 28.5282 46.322 28.3106 45.7195C28.1097 45.1002 27.8252 44.5813 27.457 44.1629C27.0887 43.7445 26.6536 43.4264 26.1514 43.2089C25.6661 42.9913 25.1472 42.8825 24.5949 42.8825C24.0425 42.8825 23.5153 42.9913 23.0132 43.2089C22.5278 43.4264 22.101 43.7445 21.7328 44.1629C21.3645 44.5813 21.0716 45.1002 20.854 45.7195C20.6532 46.322 20.5528 47.0166 20.5528 47.8033ZM18.2932 47.8033C18.2932 46.8492 18.4271 45.9622 18.6949 45.142C18.9627 44.3052 19.3644 43.5854 19.9 42.9829C20.4356 42.3636 21.0967 41.8782 21.8834 41.5267C22.6701 41.1753 23.5739 40.9995 24.5949 40.9995C25.6326 40.9995 26.5364 41.1753 27.3063 41.5267C28.093 41.8782 28.7541 42.3636 29.2897 42.9829C29.8253 43.5854 30.227 44.3052 30.4948 45.142C30.7626 45.9622 30.8965 46.8492 30.8965 47.8033C30.8965 48.7573 30.7626 49.6444 30.4948 50.4645C30.227 51.2847 29.8253 52.0044 29.2897 52.6237C28.7541 53.2262 28.093 53.7032 27.3063 54.0547C26.5364 54.3895 25.6326 54.5568 24.5949 54.5568C23.5739 54.5568 22.6701 54.3895 21.8834 54.0547C21.0967 53.7032 20.4356 53.2262 19.9 52.6237C19.3644 52.0044 18.9627 51.2847 18.6949 50.4645C18.4271 49.6444 18.2932 48.7573 18.2932 47.8033Z" fill="#880000"/>
<path d="M0 41.3008H2.00849V43.2089H2.05871C3.02948 41.736 4.42705 40.9995 6.25144 40.9995C7.05483 40.9995 7.78291 41.1669 8.43567 41.5016C9.08843 41.8364 9.54871 42.4055 9.81651 43.2089C10.2517 42.5059 10.8208 41.9619 11.5237 41.577C12.2434 41.192 13.0301 40.9995 13.8837 40.9995C14.5365 40.9995 15.1223 41.0748 15.6411 41.2255C16.1767 41.3594 16.6286 41.577 16.9969 41.8782C17.3818 42.1795 17.6747 42.5728 17.8756 43.0582C18.0932 43.5269 18.202 44.0959 18.202 44.7654V54.2807H16.0679V45.7697C16.0679 45.368 16.0345 44.9914 15.9675 44.6399C15.9006 44.2884 15.775 43.9871 15.5909 43.7361C15.4068 43.4683 15.1474 43.2591 14.8126 43.1084C14.4946 42.9578 14.0762 42.8825 13.5573 42.8825C12.5029 42.8825 11.6744 43.1837 11.0718 43.7863C10.4693 44.3888 10.168 45.1922 10.168 46.1965V54.2807H8.03397V45.7697C8.03397 45.3512 7.99213 44.9663 7.90844 44.6148C7.84149 44.2633 7.71596 43.962 7.53185 43.711C7.34774 43.4432 7.09668 43.2423 6.77866 43.1084C6.47739 42.9578 6.08406 42.8825 5.59867 42.8825C4.97939 42.8825 4.44379 43.008 3.99188 43.2591C3.55671 43.5101 3.19685 43.8114 2.91232 44.1629C2.64452 44.5144 2.44367 44.8826 2.30977 45.2676C2.1926 45.6358 2.13402 45.9454 2.13402 46.1965V54.2807H0V41.3008Z" fill="#880000"/>
</svg>
