<svg width="100" height="100" viewBox="0 0 100 100" fill="none" xmlns="http://www.w3.org/2000/svg">
<g clip-path="url(#clip0_867_21411)">
<path d="M66.4769 40.0083H83.8952V43.2233H76.9856V60.1367H73.5305V43.2233H66.4769V40.0083Z" fill="black"/>
<path d="M37.8304 40.0083V43.2233H23.8685V48.3951H35.0967V51.6101H23.8685V56.9218H37.8304V60.1367H20.4137V43.2233H20.4122V40.0083H37.8304Z" fill="black"/>
<path d="M46.5279 40.0168H42.0066L58.201 60.1453H62.7355L54.6373 50.088L62.7226 40.0322L58.201 40.0392L52.3736 47.2766L46.5279 40.0168Z" fill="black"/>
<path d="M51.1675 54.3945L48.9033 51.5793L41.9937 60.1605H46.5279L51.1675 54.3945Z" fill="black"/>
<path fill-rule="evenodd" clip-rule="evenodd" d="M20.5348 60.1368L4.31855 40H0V60.1284H3.45485V44.3024L16.1946 60.1368H20.5348Z" fill="black"/>
<path d="M84.6719 60.0139C84.4188 60.0139 84.2036 59.9262 84.0234 59.7509C83.8432 59.5756 83.7541 59.3634 83.7564 59.112C83.7541 58.8674 83.8432 58.6575 84.0234 58.4822C84.2036 58.3069 84.4188 58.2192 84.6719 58.2192C84.9153 58.2192 85.1282 58.3069 85.3084 58.4822C85.4912 58.6575 85.5823 58.8674 85.5848 59.112C85.5823 59.278 85.5402 59.4303 85.4559 59.5663C85.3693 59.7048 85.2594 59.8132 85.1211 59.8916C84.9853 59.9724 84.8356 60.0139 84.6719 60.0139Z" fill="black"/>
<path d="M90.5685 51.5344H92.0994V57.4327C92.0972 57.9748 91.9799 58.4385 91.7507 58.8283C91.519 59.2181 91.1982 59.5157 90.7862 59.7256C90.3766 59.9332 89.8967 60.0393 89.3512 60.0393C88.8525 60.0393 88.4055 59.9493 88.0076 59.774C87.6096 59.5987 87.2936 59.3358 87.0619 58.9898C86.8276 58.6437 86.7129 58.2124 86.7129 57.6957H88.2464C88.2487 57.9218 88.3002 58.1178 88.3984 58.2816C88.4967 58.4454 88.6324 58.5699 88.8058 58.6576C88.9812 58.7452 89.1827 58.7891 89.4096 58.7891C89.6555 58.7891 89.8662 58.7383 90.037 58.6345C90.2078 58.533 90.339 58.3808 90.4304 58.1778C90.5192 57.9771 90.5662 57.728 90.5685 57.4327V51.5344Z" fill="black"/>
<path d="M98.3988 53.8411C98.3615 53.4836 98.1975 53.2045 97.912 53.0061C97.6239 52.8054 97.2518 52.7062 96.7952 52.7062C96.4747 52.7062 96.1985 52.7547 95.9691 52.8493C95.7397 52.9461 95.5617 53.0753 95.4399 53.2391C95.3183 53.4029 95.2574 53.5897 95.2526 53.7996C95.2526 53.9749 95.2947 54.1272 95.3767 54.2541C95.4587 54.3832 95.5686 54.4916 95.7115 54.5793C95.8518 54.6693 96.0087 54.7431 96.1798 54.803C96.3528 54.863 96.5262 54.9138 96.6993 54.9553L97.4975 55.1514C97.8183 55.2252 98.1298 55.3244 98.427 55.4512C98.7242 55.5758 98.9935 55.735 99.2298 55.9264C99.4663 56.1179 99.6536 56.3485 99.7917 56.6184C99.9297 56.8883 100 57.2043 100 57.5688C100 58.0601 99.8737 58.4915 99.6183 58.8652C99.3633 59.2365 98.9957 59.5272 98.5135 59.7371C98.0336 59.9447 97.4531 60.0508 96.7696 60.0508C96.1094 60.0508 95.5336 59.9494 95.049 59.7464C94.5622 59.5457 94.1828 59.2504 93.9089 58.8629C93.6351 58.4753 93.4876 58.0025 93.4666 57.4465H94.9836C95.0046 57.7372 95.0983 57.9794 95.2574 58.1755C95.4188 58.3692 95.6295 58.5123 95.8871 58.6091C96.147 58.7037 96.4371 58.7521 96.7579 58.7521C97.0927 58.7521 97.3876 58.7014 97.6427 58.6022C97.8955 58.503 98.0945 58.3646 98.2374 58.1847C98.3825 58.0071 98.4551 57.7972 98.4574 57.5573C98.4551 57.3381 98.3894 57.1559 98.263 57.0129C98.1343 56.8699 97.9564 56.7499 97.7292 56.653C97.5001 56.5562 97.233 56.4685 96.9287 56.3924L95.9597 56.1479C95.2597 55.9702 94.7049 55.7004 94.2998 55.3382C93.8927 54.9761 93.6912 54.4963 93.6912 53.8942C93.6912 53.4006 93.827 52.9669 94.1011 52.5955C94.3724 52.2242 94.7447 51.9358 95.2153 51.7305C95.6881 51.5229 96.2219 51.4214 96.8163 51.4214C97.4204 51.4214 97.9493 51.5229 98.4059 51.7305C98.8622 51.9358 99.2206 52.2218 99.4803 52.5863C99.7402 52.9508 99.8759 53.3683 99.8831 53.8411H98.3988Z" fill="black"/>
</g>
<defs>
<clipPath id="clip0_867_21411">
<rect width="100" height="20.3046" fill="white" transform="translate(0 40)"/>
</clipPath>
</defs>
</svg>
